# xmcd
#
# Track frame offsets:
#	150
#	12323
#	25920
#	38314
#	50454
#	64741
#	77650
#	90322
#	105119
#	118426
#	131523
#	144715
#	157858
#	171057
#	184522
#	196679
#	209053
#	222995
#	237610
#	250859
#
# Disc length: 3534 seconds
#
# Revision: 0
# Processed by: cddbd v1.5.2PL0 Copyright (c) Steve Scherf et al.
# Submitted via: audiograbber 1.83.01
#
DISCID=090dcc14
DTITLE=Ma Rainey - Ma Rainey - Mother of the Blues - CD 3
DYEAR=1900
DGENRE=Blues
TTITLE0=Slave to the Blues
TTITLE1=Yonder Comes the Blues
TTITLE2=Titanic Man Blues (take 1)
TTITLE3=Titanic Man Blues (take 2)
TTITLE4=Chain Gang Blues
TTITLE5=Bessemer Bound Blues (take 1)
TTITLE6=Bessemer Bound Blues (take 2)
TTITLE7=Oh! My Babe Blues
TTITLE8=Wringing and Twisting Blues
TTITLE9=Stack O'Lee Blues
TTITLE10=Broken Hearted Blues
TTITLE11=Jealousy Blues
TTITLE12=Seeking Blues (take 1)
TTITLE13=Seeking Blues (take 2)
TTITLE14=Mountain Jack Blues (take 1)
TTITLE15=Mountain Jack Blues (take 3)
TTITLE16=Down in the Basement
TTITLE17=Sissy Blues
TTITLE18=Broken Soul Blues
TTITLE19=Trust No Man
EXTD=CD 3/4 - JSP 7793
EXTT0=
EXTT1=
EXTT2=
EXTT3=
EXTT4=
EXTT5=
EXTT6=
EXTT7=
EXTT8=
EXTT9=
EXTT10=
EXTT11=
EXTT12=
EXTT13=
EXTT14=
EXTT15=
EXTT16=
EXTT17=
EXTT18=
EXTT19=
PLAYORDER=
